<svg id="Layer_1" data-name="Layer 1" xmlns="http://www.w3.org/2000/svg" viewBox="0 0 44.82 63"><defs><style>.cls-1{fill:#eb6e4b;}.cls-2{fill:gray;}</style></defs><path class="cls-1" d="M23.48,21.8a12.16,12.16,0,0,0,17,0,1.8,1.8,0,0,0,0-2.56,1.85,1.85,0,0,0-2.6,0,8.44,8.44,0,0,1-11.84,0,1.85,1.85,0,0,0-2.6,0A1.8,1.8,0,0,0,23.48,21.8Z" transform="translate(-9.59 -1)"/><circle class="cls-1" cx="34.41" cy="15" r="3"/><circle class="cls-1" cx="10.41" cy="15" r="3"/><path class="cls-1" d="M17.9,34v4.06a1,1,0,0,0,1,1h5.55v5.61l-2.32.71a1,1,0,0,0-.75,1.08,1,1,0,0,0,1,.91,1,1,0,0,0,.3,0l1.76-.54v2.35l-2.32.71a1,1,0,0,0-.75,1.08,1,1,0,0,0,1,.91,1,1,0,0,0,.3-.05l1.76-.54v2.35l-2.32.71a1,1,0,0,0,.26,2,1,1,0,0,0,.3-.05l1.76-.54v2.2s0,.1,0,.14l-2.33.72a1,1,0,0,0,.26,2,1,1,0,0,0,.3-.05l3.33-1,4.85,4.06a1,1,0,0,0,.65.24,1,1,0,0,0,.63-.22l6.41-5.07a1,1,0,0,0,.39-.79V55.76l2.32-.71A1,1,0,0,0,42,53.9a1,1,0,0,0-1.29-.8L39,53.64V51.3l2.32-.71a1,1,0,1,0-.56-2L39,49.18V46.84l2.32-.71a1,1,0,1,0-.56-2L39,44.72V42.37l2.33-.71a1,1,0,0,0,.74-1,1,1,0,0,0-1.31-.89L39,40.26V39.08H44.5a1,1,0,0,0,1-1V34Zm19,23.39h0l-5.35,4.25L28.34,59l8.55-2.63Zm0-3.17h0L26.53,57.4h0V55.06l10.36-3.18Zm0-4.46L26.53,52.94V50.6l10.36-3.18Zm0-4.46L26.53,48.48V46.14L36.89,43Zm0-4.42L26.53,44.07v-5H36.89ZM43.44,37H19.8V34.07H43.44Z" transform="translate(-9.59 -1)"/><path class="cls-2" d="M44.38,1.34A11.66,11.66,0,0,0,41.55,1a18.43,18.43,0,0,0-8,2.23A15.51,15.51,0,0,1,32,3.9a10.6,10.6,0,0,1-1.6-.67,18.38,18.38,0,0,0-8-2.23,12.18,12.18,0,0,0-2.83.34c-6.56,1.6-10,7.91-10,18.24a24.75,24.75,0,0,0,4.22,13.66c.11.16,6.37,1.39,6.37,1.36,1.64.17,3.7.31,6.29.4H37c2.59-.09,4.65-.23,6.29-.4,0,0,6.76-1.2,6.88-1.36a24.78,24.78,0,0,0,4.21-13.66C54.41,9.25,50.94,2.94,44.38,1.34Zm3.84,30c-1,.33-4.86,1.28-16.22,1.28s-15.29-1-16.21-1.27A22.5,22.5,0,0,1,12.3,19.58c0-6.24,1.38-14,8-15.62a9.29,9.29,0,0,1,2.18-.26,15.86,15.86,0,0,1,6.81,2A7,7,0,0,0,32,6.6a7,7,0,0,0,2.74-.94,15.91,15.91,0,0,1,6.82-2A9.35,9.35,0,0,1,43.74,4c6.58,1.61,8,9.38,8,15.62A22.55,22.55,0,0,1,48.22,31.34Z" transform="translate(-9.59 -1)"/><path class="cls-2" d="M26.25,44.12l-2.11.64-2.38.73a1,1,0,0,0-.75,1.1,1.05,1.05,0,0,0,1.33.88l1.8-.55,2.11-.68L36.82,43l2.11-.6,2.38-.73a1,1,0,1,0-.58-2l-1.8.55-7.45,2.28-5.23,1.61Z" transform="translate(-9.59 -1)"/><path class="cls-2" d="M26.25,48.57l-2.11.64-2.38.73A1,1,0,0,0,21,51a1.05,1.05,0,0,0,1.33.88l1.8-.55,2.11-.68,10.57-3.24,2.11-.6,2.38-.73a1,1,0,1,0-.58-2l-1.8.55L31.48,47l-5.23,1.61Z" transform="translate(-9.59 -1)"/><path class="cls-2" d="M26.25,53l-2.11.64-2.38.73a1,1,0,0,0-.75,1.1,1.05,1.05,0,0,0,1.33.88l1.8-.55,2.11-.68L36.82,51.9l2.11-.6,2.38-.73a1,1,0,1,0-.58-2l-1.8.55-7.45,2.28L26.25,53Z" transform="translate(-9.59 -1)"/><path class="cls-2" d="M26.25,57.47l-2.11.64-2.38.73a1,1,0,0,0-.75,1.1,1.05,1.05,0,0,0,1.33.88l1.8-.55,2.11-.68,10.57-3.24,2.11-.6L41.31,55a1,1,0,1,0-.58-2l-1.8.55-7.45,2.28-5.23,1.61Z" transform="translate(-9.59 -1)"/></svg>